
        <svg xmlns="http://www.w3.org/2000/svg" xmlns:xlink="http://www.w3.org/1999/xlink" version="1.1" width="3217.502143606497" height="1305.012861638982" viewBox="0 0 3217.502143606497 1305.012861638982">
			
			<g transform="scale(10.87510718032485) translate(10, 10)">
				<defs id="SvgjsDefs1263"/><g id="SvgjsG1264" featureKey="G09qjj-0" transform="matrix(1.25,0,0,1.25,-12.5,-12.5)" fill="#fff"><path xmlns="http://www.w3.org/2000/svg" d="M84.06,50.003C87.751,45.762,90,40.231,90,34.167C90,20.82,79.18,10,65.833,10C59.769,10,54.241,12.249,50,15.938  C45.755,12.249,40.231,10,34.167,10C20.82,10,10,20.82,10,34.167c0,6.064,2.249,11.592,5.938,15.833  C12.249,54.241,10,59.769,10,65.833C10,79.18,20.82,90,34.167,90c6.064,0,11.588-2.249,15.833-5.938  C54.241,87.751,59.769,90,65.833,90C79.18,90,90,79.18,90,65.833c0-6.064-2.249-11.592-5.938-15.833L84.06,50.003z M83.333,34.167  c0,9.648-7.852,17.5-17.5,17.5c-4.388,0-8.355-1.68-11.429-4.362c2.468-3.782,3.929-8.281,3.929-13.138  c0-4.857-1.445-9.369-3.909-13.154c3.069-2.673,7.031-4.346,11.409-4.346C75.481,16.667,83.333,24.519,83.333,34.167z   M34.167,16.667c9.648,0,17.5,7.852,17.5,17.5c0,4.388-1.68,8.355-4.355,11.432c-3.786-2.471-8.288-3.932-13.145-3.932  c-4.857,0-9.369,1.445-13.158,3.912c-2.669-3.072-4.342-7.034-4.342-11.412C16.667,24.519,24.519,16.667,34.167,16.667z   M16.667,65.833c0-9.648,7.852-17.5,17.5-17.5c4.388,0,8.355,1.68,11.432,4.359c-2.471,3.785-3.932,8.284-3.932,13.141  c0,4.857,1.445,9.369,3.912,13.154c-3.072,2.673-7.031,4.346-11.412,4.346C24.519,83.333,16.667,75.481,16.667,65.833z   M65.833,83.333c-9.648,0-17.5-7.852-17.5-17.5c0-4.388,1.68-8.355,4.355-11.432c3.786,2.471,8.288,3.932,13.145,3.932  c4.857,0,9.369-1.445,13.158-3.912c2.669,3.072,4.342,7.034,4.342,11.412C83.333,75.481,75.481,83.333,65.833,83.333z"/></g><g id="SvgjsG1265" featureKey="0yvIkK-0" transform="matrix(3.906249602247691,0,0,3.906249602247691,115.78125026193445,0.9375014939964785)" fill="#fff"><path d="M5.94 10.52 q2 0 3.44 1.6 l-0.96 0.72 q-1.16 -1.24 -2.5 -1.24 q-1.56 0 -2.59 1.06 t-1.05 2.72 q0 1.66 1.04 2.71 t2.6 1.07 q1.48 0 2.5 -1.28 l0.92 0.76 q-1.34 1.58 -3.4 1.6 q-2.1 0 -3.46 -1.36 t-1.4 -3.5 q0 -2.06 1.35 -3.44 t3.51 -1.42 z M11.22 4.880000000000001 l1.2 0 l0 7.5 l0.04 0 q0.4 -0.86 1.27 -1.36 t1.89 -0.5 q3.52 0 3.52 3.9 l0 5.58 l-1.2 0 l0 -5.46 q0 -2.94 -2.32 -2.94 q-1.5 0 -2.35 1.03 t-0.85 2.71 l0 4.66 l-1.2 0 l0 -15.12 z M22.540000000000003 10.76 l1.2 0 l0 9.24 l-1.2 0 l0 -9.24 z M23.14 6.199999999999999 q0.4 0 0.65 0.26 t0.25 0.64 t-0.25 0.64 t-0.65 0.26 q-0.38 0 -0.64 -0.26 t-0.26 -0.64 t0.26 -0.64 t0.64 -0.26 z M31.540000000000003 10.52 q1.02 0 1.75 0.52 t1.03 1.48 q0.4 -0.96 1.26 -1.48 t1.9 -0.52 q3.5 0 3.5 3.92 l0 5.56 l-1.2 0 l0 -5.5 q0 -2.88 -2.32 -2.9 q-1.4 0 -2.1 0.92 t-0.7 2.38 l0 5.1 l-1.2 0 l0 -5.62 q0 -1.26 -0.48 -2.01 t-1.46 -0.77 q-1.44 0 -2.3 1.01 t-0.88 2.81 l0 4.58 l-1.2 0 l0 -6.74 q-0.02 -0.68 -0.1 -2.5 l1.2 0 q0.04 1.48 0.08 1.62 l0.06 0 q0.4 -0.86 1.28 -1.36 t1.88 -0.5 z"/></g>
			</g>
		</svg>
	